<?xml version="1.0" encoding="UTF-8"?>
<!DOCTYPE svg PUBLIC "-//W3C//DTD SVG 1.1//EN" "http://www.w3.org/Graphics/SVG/1.1/DTD/svg11.dtd">
<!-- Creator: CorelDRAW (Evaluation Version) -->
<svg xmlns="http://www.w3.org/2000/svg" xml:space="preserve" width="381.794mm" height="106.728mm" version="1.1" style="shape-rendering:geometricPrecision; text-rendering:geometricPrecision; image-rendering:optimizeQuality; fill-rule:evenodd; clip-rule:evenodd"
viewBox="0 0 38165.15 10668.8"
 xmlns:xlink="http://www.w3.org/1999/xlink"
 xmlns:xodm="http://www.corel.com/coreldraw/odm/2003">
 <defs>
  <style type="text/css">
   <![CDATA[
    .fil1 {fill:#FEFEFE;fill-rule:nonzero}
    .fil0 {fill:#373435;fill-rule:nonzero}
    .fil3 {fill:#00AFEF;fill-rule:nonzero}
    .fil2 {fill:#3E4095;fill-rule:nonzero}
   ]]>
  </style>
    <mask id="id0">
  <radialGradient id="id1" gradientUnits="userSpaceOnUse" cx="-10941.28" cy="11751.32" r="1147.28" fx="-10941.28" fy="11751.32">
   <stop offset="0" style="stop-opacity:1; stop-color:white"/>
   <stop offset="1" style="stop-opacity:0; stop-color:white"/>
  </radialGradient>
     <rect style="fill:url(#id1)" x="3803.81" y="8798.19" width="3468.28" height="1734.46"/>
    </mask>
    <mask id="id2">
  <radialGradient id="id3" gradientUnits="userSpaceOnUse" cx="-1891.79" cy="2520.73" r="6245.97" fx="-1891.79" fy="2520.73">
   <stop offset="0" style="stop-opacity:1; stop-color:white"/>
   <stop offset="1" style="stop-opacity:0; stop-color:white"/>
  </radialGradient>
     <rect style="fill:url(#id3)" x="-3.81" y="-3.81" width="11091.84" height="10083.55"/>
    </mask>
 </defs>
 <g id="Layer_x0020_1">
  <metadata id="CorelCorpID_0Corel-Layer"/>
  <g id="_2214619018032">
   <path class="fil0" d="M14910.23 8813.54l167.25 -15.03c7.83,67.65 26.31,123.09 55.44,166.63 29.12,43.21 74.22,78.3 135.3,105.23 61.08,26.62 129.98,40.1 206.4,40.1 67.96,0 127.78,-10.03 179.77,-30.39 51.99,-20.35 90.52,-48.23 115.89,-83.62 25.37,-35.4 38.21,-73.91 38.21,-115.26 0,-41.97 -12.22,-78.62 -36.65,-110.25 -24.42,-31.32 -64.83,-57.63 -121.2,-79.24 -36.02,-13.78 -115.89,-35.71 -239.6,-65.46 -123.71,-29.76 -210.15,-57.63 -259.64,-83.94 -64.21,-33.83 -111.81,-75.8 -143.14,-125.59 -31.63,-49.8 -47.29,-105.87 -47.29,-167.57 0,-68.27 19.42,-131.86 57.95,-190.74 38.53,-59.2 94.58,-103.98 168.82,-134.68 73.91,-30.69 156.28,-46.03 246.8,-46.03 99.6,0 187.61,15.96 263.71,48.23 76.11,31.94 134.68,79.24 175.71,141.88 41.02,62.33 62.95,133.11 66.09,212.04l-171.02 13.16c-9.08,-84.88 -40.09,-149.08 -93.02,-192.31 -52.93,-43.53 -131.23,-65.15 -234.59,-65.15 -107.74,0 -186.35,19.73 -235.52,59.2 -49.17,39.46 -73.91,87.07 -73.91,142.82 0,48.23 17.53,88.01 52.3,119.33 34.45,31.01 123.71,63.27 268.41,95.84 144.71,32.89 243.99,61.39 297.86,85.82 77.99,36.02 135.93,81.43 173.2,136.87 37.28,55.12 55.75,118.7 55.75,190.74 0,71.72 -20.35,138.75 -61.39,202.01 -41.02,63.27 -99.59,112.44 -176.32,147.51 -76.74,35.08 -162.87,52.62 -259.02,52.62 -121.52,0 -223.31,-17.85 -305.37,-53.25 -82.38,-35.39 -146.59,-88.63 -193.25,-160.04 -46.98,-71.09 -71.41,-151.59 -73.91,-241.48zm1229 -55.44c0,-180.08 50.11,-313.51 150.64,-400.27 83.63,-72.03 186.04,-108.05 306.63,-108.05 133.74,0 243.36,43.84 328.55,131.54 84.88,87.39 127.47,208.59 127.47,363 0,125.27 -18.79,223.63 -56.37,295.35 -37.59,71.72 -92.4,127.47 -164.44,167.25 -71.72,39.78 -150.33,59.51 -235.21,59.51 -136.55,0 -246.8,-43.53 -331.06,-130.92 -84.25,-87.38 -126.21,-213.29 -126.21,-377.41zm169.13 0.32c0,124.65 27.25,217.99 81.75,279.69 54.81,62.02 123.39,93.03 206.39,93.03 82.06,0 150.33,-31.01 205.15,-93.34 54.49,-62.33 81.74,-157.23 81.74,-284.7 0,-120.27 -27.56,-211.41 -82.37,-273.11 -54.81,-62.02 -123.09,-93.03 -204.52,-93.03 -83,0 -151.58,30.7 -206.39,92.4 -54.5,61.7 -81.75,154.72 -81.75,279.07zm934.27 487.34l0 -1345.52 165.38 0 0 1345.52 -165.38 0zm1058.3 0l0 -145.02c-75.79,110.56 -178.52,165.69 -308.49,165.69 -57.32,0 -110.88,-10.97 -160.68,-32.89 -49.79,-22.24 -86.76,-49.8 -110.87,-83 -24.12,-33.51 -41.03,-74.23 -50.74,-122.46 -6.58,-32.57 -10.03,-83.94 -10.03,-154.09l0 -603.53 165.38 0 0 539.64c0,86.14 3.44,144.39 10.02,174.14 10.34,43.53 32.26,77.36 66.09,102.1 33.52,24.74 74.86,37.28 124.34,37.28 49.48,0 95.84,-12.54 139.06,-37.91 43.22,-25.36 73.92,-60.13 92.09,-103.66 17.85,-43.54 26.93,-107.12 26.93,-190.12l0 -521.48 165.38 0 0 975.31 -148.46 0zm1045.15 -357.05l161.62 22.55c-17.85,111.18 -62.96,197.94 -135.93,260.89 -72.98,62.96 -162.87,94.27 -269.04,94.27 -133.12,0 -240.23,-43.53 -321.04,-130.6 -81.12,-87.08 -121.51,-211.73 -121.51,-373.97 0,-105.23 17.53,-197 52.3,-275.93 34.77,-78.61 87.7,-137.81 159.11,-176.96 71.09,-39.46 148.45,-59.19 232.39,-59.19 105.55,0 192.31,26.62 259.33,80.18 67.33,53.55 110.56,129.66 129.35,228l-159.74 24.43c-15.34,-65.46 -42.27,-114.63 -81.43,-147.82 -38.84,-32.89 -85.82,-49.49 -140.94,-49.49 -83.31,0 -150.96,29.76 -203.27,89.27 -51.99,59.82 -77.98,153.78 -77.98,282.81 0,130.92 25.05,225.83 75.16,285.01 50.43,59.2 115.89,88.96 196.39,88.96 65.15,0 119.33,-19.73 162.55,-59.51 43.53,-39.47 71.09,-100.54 82.68,-182.91zm-385.86 518.66l47.6 -161.61 122.14 0 -30.38 97.72c52.31,6.26 91.77,22.23 118.4,48.23 26.62,25.68 39.78,54.49 39.78,86.13 0,45.72 -22.24,86.13 -66.72,121.2 -44.16,35.08 -111.19,52.62 -200.45,52.62 -50.43,0 -94.9,0 -133.11,0l9.4 -116.51c39.78,1.25 68.58,1.88 87.38,1.88 57.95,0 98.97,-7.84 122.46,-23.81 17.85,-12.22 26.94,-26.93 26.94,-44.78 0,-10.97 -3.45,-20.67 -10.66,-29.13 -6.89,-8.46 -19.73,-15.97 -38.53,-21.92 -19.1,-5.95 -50.42,-9.4 -94.26,-10.03zm626.41 -649.27c0,-180.08 50.11,-313.51 150.64,-400.27 83.63,-72.03 186.04,-108.05 306.63,-108.05 133.74,0 243.36,43.84 328.55,131.54 84.88,87.39 127.47,208.59 127.47,363 0,125.27 -18.79,223.63 -56.37,295.35 -37.59,71.72 -92.4,127.47 -164.44,167.25 -71.72,39.78 -150.33,59.51 -235.21,59.51 -136.55,0 -246.8,-43.53 -331.06,-130.92 -84.25,-87.38 -126.21,-213.29 -126.21,-377.41zm169.13 0.32c0,124.65 27.25,217.99 81.75,279.69 54.81,62.02 123.39,93.03 206.39,93.03 82.06,0 150.33,-31.01 205.15,-93.34 54.49,-62.33 81.74,-157.23 81.74,-284.7 0,-120.27 -27.56,-211.41 -82.37,-273.11 -54.81,-62.02 -123.09,-93.03 -204.52,-93.03 -83,0 -151.58,30.7 -206.39,92.4 -54.5,61.7 -81.75,154.72 -81.75,279.07zm-13.16 -606.36c-0.63,-62.95 16.91,-113.07 52.3,-150.64 34.77,-37.28 79.56,-56.07 134.05,-56.07 37.91,0 89.58,15.97 154.72,48.23 36.02,17.85 64.84,26.94 86.14,26.94 19.72,0 34.76,-5.33 45.09,-15.97 10.34,-10.34 17.54,-31.64 21.93,-62.96l118.39 0c-1.88,69.53 -19.42,121.52 -52.62,156.29 -33.2,34.77 -75.16,52.3 -126.53,52.3 -38.21,0 -88.95,-17.22 -151.58,-51.36 -41.03,-22.24 -71.1,-33.2 -90.21,-33.2 -20.67,0 -37.59,7.2 -50.11,21.92 -13.46,14.4 -20.04,36.02 -19.42,64.52l-122.14 0zm1616.43 778l171.01 22.54c-26.62,99.29 -76.42,176.65 -149.08,231.46 -72.66,54.81 -165.37,82.37 -278.44,82.37 -142.19,0 -254.94,-43.85 -338.25,-131.54 -83.31,-87.39 -124.96,-210.47 -124.96,-368.64 0,-163.49 41.96,-290.65 126.21,-380.86 84.26,-90.51 193.56,-135.61 327.93,-135.61 129.98,0 236.15,44.16 318.52,132.79 82.38,88.64 123.71,213.29 123.71,373.97 0,9.71 -0.31,24.43 -0.94,43.84l-726.31 0c6.26,106.8 36.33,188.86 90.83,245.55 54.18,56.69 122.15,85.2 203.26,85.2 60.45,0 112.13,-15.97 154.72,-47.92 42.91,-31.95 76.74,-83 101.79,-153.15zm-541.21 -264.97l543.09 0c-7.2,-82.06 -28.19,-143.45 -62.33,-184.48 -52.3,-63.58 -120.58,-95.52 -204.2,-95.52 -75.79,0 -139.38,25.37 -191.06,76.11 -51.36,50.74 -79.86,118.71 -85.5,203.89zm855.35 289.39l163.49 -26.3c9.09,65.46 34.77,115.57 76.73,150.64 41.97,34.77 100.85,52.31 176.02,52.31 76.1,0 132.48,-15.35 169.44,-46.36 36.65,-30.69 55.13,-67.02 55.13,-108.68 0,-37.27 -16.6,-66.71 -49.49,-88.01 -23.17,-14.72 -79.55,-33.2 -169.13,-56.06 -120.89,-30.39 -204.52,-56.69 -251.5,-78.93 -46.67,-22.55 -82.06,-53.24 -106.18,-92.71 -24.11,-39.16 -36.33,-82.69 -36.33,-130.29 0,-43.53 10.02,-83.63 29.75,-120.58 20.04,-36.96 46.98,-67.65 81.12,-92.09 25.68,-18.78 60.76,-34.76 104.92,-47.91 44.47,-13.16 91.77,-19.73 142.51,-19.73 76.42,0 143.45,10.96 201.07,33.2 57.95,21.92 100.54,51.99 128.1,89.58 27.25,37.9 46.35,88.32 56.69,151.58l-161.61 22.55c-7.21,-50.73 -28.5,-90.52 -63.59,-119.02 -35.08,-28.5 -84.56,-42.59 -148.76,-42.59 -75.48,0 -129.67,12.53 -161.93,37.59 -32.26,25.05 -48.54,54.5 -48.54,88.01 0,21.3 6.58,40.71 20.04,57.95 13.46,17.53 34.46,32.26 63.27,43.84 16.6,6.27 64.84,20.36 145.64,42.28 116.52,31.01 197.95,56.69 244.3,76.42 46.35,19.73 82.69,48.86 109,86.44 26.62,37.91 39.78,84.88 39.78,141.26 0,54.81 -15.97,106.49 -48.23,155.03 -32.26,48.55 -78.62,86.14 -139.07,112.76 -60.76,26.62 -129.35,39.78 -205.77,39.78 -126.53,0 -223.31,-26.31 -289.71,-78.61 -66.4,-52.62 -108.68,-130.29 -127.15,-233.34zm2192.72 -24.42l171.01 22.54c-26.62,99.29 -76.42,176.65 -149.08,231.46 -72.66,54.81 -165.37,82.37 -278.44,82.37 -142.19,0 -254.94,-43.85 -338.25,-131.54 -83.31,-87.39 -124.96,-210.47 -124.96,-368.64 0,-163.49 41.96,-290.65 126.21,-380.86 84.26,-90.51 193.56,-135.61 327.93,-135.61 129.98,0 236.15,44.16 318.52,132.79 82.38,88.64 123.71,213.29 123.71,373.97 0,9.71 -0.31,24.43 -0.94,43.84l-726.31 0c6.26,106.8 36.33,188.86 90.83,245.55 54.18,56.69 122.15,85.2 203.26,85.2 60.45,0 112.13,-15.97 154.72,-47.92 42.91,-31.95 76.74,-83 101.79,-153.15zm-541.21 -264.97l543.09 0c-7.2,-82.06 -28.19,-143.45 -62.33,-184.48 -52.3,-63.58 -120.58,-95.52 -204.2,-95.52 -75.79,0 -139.38,25.37 -191.06,76.11 -51.36,50.74 -79.86,118.71 -85.5,203.89zm921.12 580.67l0 -975.31 148.46 0 0 137.81c30.38,-47.61 71.09,-86.14 121.83,-114.95 50.74,-29.13 108.37,-43.53 173.2,-43.53 72.04,0 131.23,15.03 177.27,44.78 46.04,30.07 78.61,71.72 97.4,125.59 77.68,-113.69 178.21,-170.38 302.25,-170.38 97.08,0 171.95,26.62 223.94,80.18 52.3,53.55 78.61,135.93 78.61,247.12l0 668.68 -165.37 0 0 -613.87c0,-65.78 -5.64,-113.39 -16.28,-142.51 -10.66,-29.13 -30.07,-52.31 -58.57,-70.16 -28.19,-17.85 -61.39,-26.62 -99.29,-26.62 -68.9,0 -125.9,22.86 -171.32,68.27 -45.41,45.73 -67.96,118.71 -67.96,218.93l0 565.96 -165.37 0 0 -632.98c0,-73.28 -13.47,-128.41 -40.4,-165.06 -26.94,-36.64 -71.09,-55.12 -132.17,-55.12 -46.35,0 -89.27,12.22 -128.73,36.65 -39.46,24.43 -67.96,60.14 -85.82,107.43 -17.53,46.98 -26.3,114.95 -26.3,203.57l0 505.51 -165.38 0zm2416.36 0l0 -1187.66 -443.49 0 0 -157.86 1065.51 0 0 157.86 -443.49 0 0 1187.66 -178.52 0zm1242.16 -315.7l171.01 22.54c-26.62,99.29 -76.42,176.65 -149.08,231.46 -72.66,54.81 -165.37,82.37 -278.44,82.37 -142.19,0 -254.94,-43.85 -338.25,-131.54 -83.31,-87.39 -124.96,-210.47 -124.96,-368.64 0,-163.49 41.96,-290.65 126.21,-380.86 84.26,-90.51 193.56,-135.61 327.93,-135.61 129.98,0 236.15,44.16 318.52,132.79 82.38,88.64 123.71,213.29 123.71,373.97 0,9.71 -0.31,24.43 -0.94,43.84l-726.31 0c6.26,106.8 36.33,188.86 90.83,245.55 54.18,56.69 122.15,85.2 203.26,85.2 60.45,0 112.13,-15.97 154.72,-47.92 42.91,-31.95 76.74,-83 101.79,-153.15zm-541.21 -264.97l543.09 0c-7.2,-82.06 -28.19,-143.45 -62.33,-184.48 -52.3,-63.58 -120.58,-95.52 -204.2,-95.52 -75.79,0 -139.38,25.37 -191.06,76.11 -51.36,50.74 -79.86,118.71 -85.5,203.89zm1558.17 223.63l161.62 22.55c-17.85,111.18 -62.96,197.94 -135.93,260.89 -72.98,62.96 -162.87,94.27 -269.04,94.27 -133.12,0 -240.23,-43.53 -321.04,-130.6 -81.12,-87.08 -121.51,-211.73 -121.51,-373.97 0,-105.23 17.53,-197 52.3,-275.93 34.77,-78.61 87.7,-137.81 159.11,-176.96 71.09,-39.46 148.45,-59.19 232.39,-59.19 105.55,0 192.31,26.62 259.33,80.18 67.33,53.55 110.56,129.66 129.35,228l-159.74 24.43c-15.34,-65.46 -42.27,-114.63 -81.43,-147.82 -38.84,-32.89 -85.82,-49.49 -140.94,-49.49 -83.31,0 -150.96,29.76 -203.27,89.27 -51.99,59.82 -77.98,153.78 -77.98,282.81 0,130.92 25.05,225.83 75.16,285.01 50.43,59.2 115.89,88.96 196.39,88.96 65.15,0 119.33,-19.73 162.55,-59.51 43.53,-39.47 71.09,-100.54 82.68,-182.91zm302.56 357.05l0 -975.31 148.46 0 0 138.43c71.4,-106.17 174.76,-159.1 309.75,-159.1 58.88,0 112.75,10.65 161.92,31.63 49.18,20.99 86.14,48.86 110.57,83 24.42,34.14 41.65,74.86 51.36,121.83 5.95,30.7 9.09,84.26 9.09,160.68l0 598.84 -165.38 0 0 -592.58c0,-67.33 -6.26,-117.77 -19.1,-150.96 -12.84,-33.2 -35.71,-59.82 -68.27,-79.86 -32.58,-19.73 -71.09,-29.76 -114.95,-29.76 -70.15,0 -130.6,22.24 -181.65,67.02 -51.06,44.47 -76.42,129.35 -76.42,254.01l0 532.13 -165.38 0zm983.14 -487.66c0,-180.08 50.11,-313.51 150.64,-400.27 83.63,-72.03 186.04,-108.05 306.63,-108.05 133.74,0 243.36,43.84 328.55,131.54 84.88,87.39 127.47,208.59 127.47,363 0,125.27 -18.79,223.63 -56.37,295.35 -37.59,71.72 -92.4,127.47 -164.44,167.25 -71.72,39.78 -150.33,59.51 -235.21,59.51 -136.55,0 -246.8,-43.53 -331.06,-130.92 -84.25,-87.38 -126.21,-213.29 -126.21,-377.41zm169.13 0.32c0,124.65 27.25,217.99 81.75,279.69 54.81,62.02 123.39,93.03 206.39,93.03 82.06,0 150.33,-31.01 205.15,-93.34 54.49,-62.33 81.74,-157.23 81.74,-284.7 0,-120.27 -27.56,-211.41 -82.37,-273.11 -54.81,-62.02 -123.09,-93.03 -204.52,-93.03 -83,0 -151.58,30.7 -206.39,92.4 -54.5,61.7 -81.75,154.72 -81.75,279.07zm934.27 487.34l0 -1345.52 165.38 0 0 1345.52 -165.38 0zm359.25 -487.66c0,-180.08 50.11,-313.51 150.64,-400.27 83.63,-72.03 186.04,-108.05 306.63,-108.05 133.74,0 243.36,43.84 328.55,131.54 84.88,87.39 127.47,208.59 127.47,363 0,125.27 -18.79,223.63 -56.37,295.35 -37.59,71.72 -92.4,127.47 -164.44,167.25 -71.72,39.78 -150.33,59.51 -235.21,59.51 -136.55,0 -246.8,-43.53 -331.06,-130.92 -84.25,-87.38 -126.21,-213.29 -126.21,-377.41zm169.13 0.32c0,124.65 27.25,217.99 81.75,279.69 54.81,62.02 123.39,93.03 206.39,93.03 82.06,0 150.33,-31.01 205.15,-93.34 54.49,-62.33 81.74,-157.23 81.74,-284.7 0,-120.27 -27.56,-211.41 -82.37,-273.11 -54.81,-62.02 -123.09,-93.03 -204.52,-93.03 -83,0 -151.58,30.7 -206.39,92.4 -54.5,61.7 -81.75,154.72 -81.75,279.07zm907.65 568.15l159.73 22.55c6.58,49.48 25.37,85.5 56.07,108.36 41.02,30.39 97.09,45.73 168.19,45.73 76.42,0 135.62,-15.34 177.27,-45.73 41.65,-30.38 69.84,-73.28 84.56,-128.09 8.46,-33.52 12.54,-103.99 11.91,-211.41 -72.35,85.19 -162.24,127.78 -269.98,127.78 -134.05,0 -238.03,-48.23 -311.32,-145.02 -73.6,-96.46 -110.25,-212.35 -110.25,-347.34 0,-93.02 16.91,-178.83 50.43,-257.44 33.51,-78.62 82.37,-139.07 146.27,-181.97 63.89,-42.91 139.06,-64.21 225.51,-64.21 114.94,0 209.84,46.98 284.38,140.94l0 -120.27 152.21 0 0 842.2c0,151.9 -15.34,259.33 -46.35,322.6 -30.69,63.27 -79.86,113.38 -146.58,150.02 -67.02,36.65 -149.39,55.12 -247.12,55.12 -116.2,0 -209.84,-25.99 -281.25,-78.3 -71.72,-51.99 -106.17,-130.6 -103.67,-235.52zm135.31 -585.06c0,127.47 25.36,220.49 76.1,279.06 51.05,58.57 114.64,88.02 191.06,88.02 76.1,0 139.69,-29.13 191.36,-87.39 51.37,-58.26 77.05,-149.71 77.05,-274.37 0,-119.02 -26.62,-208.9 -79.55,-269.35 -52.93,-60.45 -116.83,-90.52 -191.37,-90.52 -73.6,0 -135.93,29.76 -187.61,89.27 -51.36,59.51 -77.04,147.82 -77.04,265.28zm940.22 -653.34l0 -187.93 165.38 0 0 187.93 -165.38 0zm0 1157.59l0 -975.31 165.38 0 0 975.31 -165.38 0zm1054.55 -122.14c-61.39,52.3 -120.57,88.95 -177.26,110.56 -56.7,21.61 -117.46,32.26 -182.6,32.26 -107.11,0 -189.49,-26 -247.12,-78.3 -57.63,-51.99 -86.44,-118.71 -86.44,-199.83 0,-47.6 10.96,-91.14 32.57,-130.6 21.92,-39.47 50.43,-70.78 85.51,-94.58 35.39,-23.81 74.85,-41.97 119.02,-54.19 32.57,-8.46 81.74,-16.59 147.21,-24.74 133.42,-15.66 232.08,-34.77 295.03,-56.69 0.63,-22.55 0.94,-36.96 0.94,-42.91 0,-67.02 -15.65,-114.32 -46.97,-141.88 -42.28,-37.27 -105.24,-55.75 -188.55,-55.75 -77.99,0 -135.62,13.78 -172.58,41.03 -37.27,27.24 -64.52,75.48 -82.37,145.01l-161.61 -22.55c14.71,-69.21 38.84,-125.27 72.66,-167.88 33.82,-42.59 82.68,-75.16 146.58,-98.34 63.58,-22.86 137.81,-34.45 221.75,-34.45 83.31,0 151.27,9.71 203.57,29.44 52,19.73 90.52,44.16 114.95,73.91 24.43,29.76 41.65,67.34 51.68,112.76 5.33,28.19 8.15,78.92 8.15,151.9l0 219.24c0,153.15 3.44,249.94 10.34,290.96 6.58,41.03 20.35,80.18 40.39,117.77l-172.89 0c-16.59,-34.77 -27.25,-75.48 -31.95,-122.14zm-13.16 -366.45c-60.13,24.43 -150.33,45.1 -270.6,62.02 -68.28,9.71 -116.52,20.67 -144.71,32.89 -28.18,12.22 -49.79,30.07 -65.15,53.24 -15.34,23.49 -23.17,49.49 -23.17,78.3 0,43.53 16.59,80.18 50.11,109.31 33.51,29.13 82.37,43.85 146.58,43.85 63.59,0 120.28,-13.78 170.07,-41.66 49.49,-27.56 86.14,-65.46 109.31,-113.38 17.85,-37.27 26.62,-92.08 26.62,-164.43l0.94 -60.14z"/>
   <path class="fil1" d="M14830.26 8803.54l167.25 -15.03c7.83,67.65 26.31,123.09 55.44,166.63 29.12,43.21 74.22,78.3 135.3,105.23 61.08,26.62 129.98,40.1 206.4,40.1 67.96,0 127.78,-10.03 179.77,-30.39 51.99,-20.35 90.52,-48.23 115.89,-83.62 25.37,-35.4 38.21,-73.91 38.21,-115.26 0,-41.97 -12.22,-78.62 -36.65,-110.25 -24.42,-31.32 -64.83,-57.63 -121.2,-79.24 -36.02,-13.78 -115.89,-35.71 -239.6,-65.46 -123.71,-29.76 -210.15,-57.63 -259.64,-83.94 -64.21,-33.83 -111.81,-75.8 -143.14,-125.59 -31.63,-49.8 -47.29,-105.87 -47.29,-167.57 0,-68.27 19.42,-131.86 57.95,-190.74 38.53,-59.2 94.58,-103.98 168.82,-134.68 73.91,-30.69 156.28,-46.03 246.8,-46.03 99.6,0 187.61,15.96 263.71,48.23 76.11,31.94 134.68,79.24 175.71,141.88 41.02,62.33 62.95,133.11 66.09,212.04l-171.02 13.16c-9.08,-84.88 -40.09,-149.08 -93.02,-192.31 -52.93,-43.53 -131.23,-65.15 -234.59,-65.15 -107.74,0 -186.35,19.73 -235.52,59.2 -49.17,39.46 -73.91,87.07 -73.91,142.82 0,48.23 17.53,88.01 52.3,119.33 34.45,31.01 123.71,63.27 268.41,95.84 144.71,32.89 243.99,61.39 297.86,85.82 77.99,36.02 135.93,81.43 173.2,136.87 37.28,55.12 55.75,118.7 55.75,190.74 0,71.72 -20.35,138.75 -61.39,202.01 -41.02,63.27 -99.59,112.44 -176.32,147.51 -76.74,35.08 -162.87,52.62 -259.02,52.62 -121.52,0 -223.31,-17.85 -305.37,-53.25 -82.38,-35.39 -146.59,-88.63 -193.25,-160.04 -46.98,-71.09 -71.41,-151.59 -73.91,-241.48zm1229 -55.44c0,-180.08 50.11,-313.51 150.64,-400.27 83.63,-72.03 186.04,-108.05 306.63,-108.05 133.74,0 243.36,43.84 328.55,131.54 84.88,87.39 127.47,208.59 127.47,363 0,125.27 -18.79,223.63 -56.37,295.35 -37.59,71.72 -92.4,127.47 -164.44,167.25 -71.72,39.78 -150.33,59.51 -235.21,59.51 -136.55,0 -246.8,-43.53 -331.06,-130.92 -84.25,-87.38 -126.21,-213.29 -126.21,-377.41zm169.13 0.32c0,124.65 27.25,217.99 81.75,279.69 54.81,62.02 123.39,93.03 206.39,93.03 82.06,0 150.33,-31.01 205.15,-93.34 54.49,-62.33 81.74,-157.23 81.74,-284.7 0,-120.27 -27.56,-211.41 -82.37,-273.11 -54.81,-62.02 -123.09,-93.03 -204.52,-93.03 -83,0 -151.58,30.7 -206.39,92.4 -54.5,61.7 -81.75,154.72 -81.75,279.07zm934.27 487.34l0 -1345.52 165.38 0 0 1345.52 -165.38 0zm1058.3 0l0 -145.02c-75.79,110.56 -178.52,165.69 -308.49,165.69 -57.32,0 -110.88,-10.97 -160.68,-32.89 -49.79,-22.24 -86.76,-49.8 -110.87,-83 -24.12,-33.51 -41.03,-74.23 -50.74,-122.46 -6.58,-32.57 -10.03,-83.94 -10.03,-154.09l0 -603.53 165.38 0 0 539.64c0,86.14 3.44,144.39 10.02,174.14 10.34,43.53 32.26,77.36 66.09,102.1 33.52,24.74 74.86,37.28 124.34,37.28 49.48,0 95.84,-12.54 139.06,-37.91 43.22,-25.36 73.92,-60.13 92.09,-103.66 17.85,-43.54 26.93,-107.12 26.93,-190.12l0 -521.48 165.38 0 0 975.31 -148.46 0zm1045.15 -357.05l161.62 22.55c-17.85,111.18 -62.96,197.94 -135.93,260.89 -72.98,62.96 -162.87,94.27 -269.04,94.27 -133.12,0 -240.23,-43.53 -321.04,-130.6 -81.12,-87.08 -121.51,-211.73 -121.51,-373.97 0,-105.23 17.53,-197 52.3,-275.93 34.77,-78.61 87.7,-137.81 159.11,-176.96 71.09,-39.46 148.45,-59.19 232.39,-59.19 105.55,0 192.31,26.62 259.33,80.18 67.33,53.55 110.56,129.66 129.35,228l-159.74 24.43c-15.34,-65.46 -42.27,-114.63 -81.43,-147.82 -38.84,-32.89 -85.82,-49.49 -140.94,-49.49 -83.31,0 -150.96,29.76 -203.27,89.27 -51.99,59.82 -77.98,153.78 -77.98,282.81 0,130.92 25.05,225.83 75.16,285.01 50.43,59.2 115.89,88.96 196.39,88.96 65.15,0 119.33,-19.73 162.55,-59.51 43.53,-39.47 71.09,-100.54 82.68,-182.91zm-385.86 518.66l47.6 -161.61 122.14 0 -30.38 97.72c52.31,6.26 91.77,22.23 118.4,48.23 26.62,25.68 39.78,54.49 39.78,86.13 0,45.72 -22.24,86.13 -66.72,121.2 -44.16,35.08 -111.19,52.62 -200.45,52.62 -50.43,0 -94.9,0 -133.11,0l9.4 -116.51c39.78,1.25 68.58,1.88 87.38,1.88 57.95,0 98.97,-7.84 122.46,-23.81 17.85,-12.22 26.94,-26.93 26.94,-44.78 0,-10.97 -3.45,-20.67 -10.66,-29.13 -6.89,-8.46 -19.73,-15.97 -38.53,-21.92 -19.1,-5.95 -50.42,-9.4 -94.26,-10.03zm626.41 -649.27c0,-180.08 50.11,-313.51 150.64,-400.27 83.63,-72.03 186.04,-108.05 306.63,-108.05 133.74,0 243.36,43.84 328.55,131.54 84.88,87.39 127.47,208.59 127.47,363 0,125.27 -18.79,223.63 -56.37,295.35 -37.59,71.72 -92.4,127.47 -164.44,167.25 -71.72,39.78 -150.33,59.51 -235.21,59.51 -136.55,0 -246.8,-43.53 -331.06,-130.92 -84.25,-87.38 -126.21,-213.29 -126.21,-377.41zm169.13 0.32c0,124.65 27.25,217.99 81.75,279.69 54.81,62.02 123.39,93.03 206.39,93.03 82.06,0 150.33,-31.01 205.15,-93.34 54.49,-62.33 81.74,-157.23 81.74,-284.7 0,-120.27 -27.56,-211.41 -82.37,-273.11 -54.81,-62.02 -123.09,-93.03 -204.52,-93.03 -83,0 -151.58,30.7 -206.39,92.4 -54.5,61.7 -81.75,154.72 -81.75,279.07zm-13.16 -606.36c-0.63,-62.95 16.91,-113.07 52.3,-150.64 34.77,-37.28 79.56,-56.07 134.05,-56.07 37.91,0 89.58,15.97 154.72,48.23 36.02,17.85 64.84,26.94 86.14,26.94 19.72,0 34.76,-5.33 45.09,-15.97 10.34,-10.34 17.54,-31.64 21.93,-62.96l118.39 0c-1.88,69.53 -19.42,121.52 -52.62,156.29 -33.2,34.77 -75.16,52.3 -126.53,52.3 -38.21,0 -88.95,-17.22 -151.58,-51.36 -41.03,-22.24 -71.1,-33.2 -90.21,-33.2 -20.67,0 -37.59,7.2 -50.11,21.92 -13.46,14.4 -20.04,36.02 -19.42,64.52l-122.14 0zm1616.43 778l171.01 22.54c-26.62,99.29 -76.42,176.65 -149.08,231.46 -72.66,54.81 -165.37,82.37 -278.44,82.37 -142.19,0 -254.94,-43.85 -338.25,-131.54 -83.31,-87.39 -124.96,-210.47 -124.96,-368.64 0,-163.49 41.96,-290.65 126.21,-380.86 84.26,-90.51 193.56,-135.61 327.93,-135.61 129.98,0 236.15,44.16 318.52,132.79 82.38,88.64 123.71,213.29 123.71,373.97 0,9.71 -0.31,24.43 -0.94,43.84l-726.31 0c6.26,106.8 36.33,188.86 90.83,245.55 54.18,56.69 122.15,85.2 203.26,85.2 60.45,0 112.13,-15.97 154.72,-47.92 42.91,-31.95 76.74,-83 101.79,-153.15zm-541.21 -264.97l543.09 0c-7.2,-82.06 -28.19,-143.45 -62.33,-184.48 -52.3,-63.58 -120.58,-95.52 -204.2,-95.52 -75.79,0 -139.38,25.37 -191.06,76.11 -51.36,50.74 -79.86,118.71 -85.5,203.89zm855.35 289.39l163.49 -26.3c9.09,65.46 34.77,115.57 76.73,150.64 41.97,34.77 100.85,52.31 176.02,52.31 76.1,0 132.48,-15.35 169.44,-46.36 36.65,-30.69 55.13,-67.02 55.13,-108.68 0,-37.27 -16.6,-66.71 -49.49,-88.01 -23.17,-14.72 -79.55,-33.2 -169.13,-56.06 -120.89,-30.39 -204.52,-56.69 -251.5,-78.93 -46.67,-22.55 -82.06,-53.24 -106.18,-92.71 -24.11,-39.16 -36.33,-82.69 -36.33,-130.29 0,-43.53 10.02,-83.63 29.75,-120.58 20.04,-36.96 46.98,-67.65 81.12,-92.09 25.68,-18.78 60.76,-34.76 104.92,-47.91 44.47,-13.16 91.77,-19.73 142.51,-19.73 76.42,0 143.45,10.96 201.07,33.2 57.95,21.92 100.54,51.99 128.1,89.58 27.25,37.9 46.35,88.32 56.69,151.58l-161.61 22.55c-7.21,-50.73 -28.5,-90.52 -63.59,-119.02 -35.08,-28.5 -84.56,-42.59 -148.76,-42.59 -75.48,0 -129.67,12.53 -161.93,37.59 -32.26,25.05 -48.54,54.5 -48.54,88.01 0,21.3 6.58,40.71 20.04,57.95 13.46,17.53 34.46,32.26 63.27,43.84 16.6,6.27 64.84,20.36 145.64,42.28 116.52,31.01 197.95,56.69 244.3,76.42 46.35,19.73 82.69,48.86 109,86.44 26.62,37.91 39.78,84.88 39.78,141.26 0,54.81 -15.97,106.49 -48.23,155.03 -32.26,48.55 -78.62,86.14 -139.07,112.76 -60.76,26.62 -129.35,39.78 -205.77,39.78 -126.53,0 -223.31,-26.31 -289.71,-78.61 -66.4,-52.62 -108.68,-130.29 -127.15,-233.34zm2192.72 -24.42l171.01 22.54c-26.62,99.29 -76.42,176.65 -149.08,231.46 -72.66,54.81 -165.37,82.37 -278.44,82.37 -142.19,0 -254.94,-43.85 -338.25,-131.54 -83.31,-87.39 -124.96,-210.47 -124.96,-368.64 0,-163.49 41.96,-290.65 126.21,-380.86 84.26,-90.51 193.56,-135.61 327.93,-135.61 129.98,0 236.15,44.16 318.52,132.79 82.38,88.64 123.71,213.29 123.71,373.97 0,9.71 -0.31,24.43 -0.94,43.84l-726.31 0c6.26,106.8 36.33,188.86 90.83,245.55 54.18,56.69 122.15,85.2 203.26,85.2 60.45,0 112.13,-15.97 154.72,-47.92 42.91,-31.95 76.74,-83 101.79,-153.15zm-541.21 -264.97l543.09 0c-7.2,-82.06 -28.19,-143.45 -62.33,-184.48 -52.3,-63.58 -120.58,-95.52 -204.2,-95.52 -75.79,0 -139.38,25.37 -191.06,76.11 -51.36,50.74 -79.86,118.71 -85.5,203.89zm921.12 580.67l0 -975.31 148.46 0 0 137.81c30.38,-47.61 71.09,-86.14 121.83,-114.95 50.74,-29.13 108.37,-43.53 173.2,-43.53 72.04,0 131.23,15.03 177.27,44.78 46.04,30.07 78.61,71.72 97.4,125.59 77.68,-113.69 178.21,-170.38 302.25,-170.38 97.08,0 171.95,26.62 223.94,80.18 52.3,53.55 78.61,135.93 78.61,247.12l0 668.68 -165.37 0 0 -613.87c0,-65.78 -5.64,-113.39 -16.28,-142.51 -10.66,-29.13 -30.07,-52.31 -58.57,-70.16 -28.19,-17.85 -61.39,-26.62 -99.29,-26.62 -68.9,0 -125.9,22.86 -171.32,68.27 -45.41,45.73 -67.96,118.71 -67.96,218.93l0 565.96 -165.37 0 0 -632.98c0,-73.28 -13.47,-128.41 -40.4,-165.06 -26.94,-36.64 -71.09,-55.12 -132.17,-55.12 -46.35,0 -89.27,12.22 -128.73,36.65 -39.46,24.43 -67.96,60.14 -85.82,107.43 -17.53,46.98 -26.3,114.95 -26.3,203.57l0 505.51 -165.38 0zm2416.36 0l0 -1187.66 -443.49 0 0 -157.86 1065.51 0 0 157.86 -443.49 0 0 1187.66 -178.52 0zm1242.16 -315.7l171.01 22.54c-26.62,99.29 -76.42,176.65 -149.08,231.46 -72.66,54.81 -165.37,82.37 -278.44,82.37 -142.19,0 -254.94,-43.85 -338.25,-131.54 -83.31,-87.39 -124.96,-210.47 -124.96,-368.64 0,-163.49 41.96,-290.65 126.21,-380.86 84.26,-90.51 193.56,-135.61 327.93,-135.61 129.98,0 236.15,44.16 318.52,132.79 82.38,88.64 123.71,213.29 123.71,373.97 0,9.71 -0.31,24.43 -0.94,43.84l-726.31 0c6.26,106.8 36.33,188.86 90.83,245.55 54.18,56.69 122.15,85.2 203.26,85.2 60.45,0 112.13,-15.97 154.72,-47.92 42.91,-31.95 76.74,-83 101.79,-153.15zm-541.21 -264.97l543.09 0c-7.2,-82.06 -28.19,-143.45 -62.33,-184.48 -52.3,-63.58 -120.58,-95.52 -204.2,-95.52 -75.79,0 -139.38,25.37 -191.06,76.11 -51.36,50.74 -79.86,118.71 -85.5,203.89zm1558.17 223.63l161.62 22.55c-17.85,111.18 -62.96,197.94 -135.93,260.89 -72.98,62.96 -162.87,94.27 -269.04,94.27 -133.12,0 -240.23,-43.53 -321.04,-130.6 -81.12,-87.08 -121.51,-211.73 -121.51,-373.97 0,-105.23 17.53,-197 52.3,-275.93 34.77,-78.61 87.7,-137.81 159.11,-176.96 71.09,-39.46 148.45,-59.19 232.39,-59.19 105.55,0 192.31,26.62 259.33,80.18 67.33,53.55 110.56,129.66 129.35,228l-159.74 24.43c-15.34,-65.46 -42.27,-114.63 -81.43,-147.82 -38.84,-32.89 -85.82,-49.49 -140.94,-49.49 -83.31,0 -150.96,29.76 -203.27,89.27 -51.99,59.82 -77.98,153.78 -77.98,282.81 0,130.92 25.05,225.83 75.16,285.01 50.43,59.2 115.89,88.96 196.39,88.96 65.15,0 119.33,-19.73 162.55,-59.51 43.53,-39.47 71.09,-100.54 82.68,-182.91zm302.56 357.05l0 -975.31 148.46 0 0 138.43c71.4,-106.17 174.76,-159.1 309.75,-159.1 58.88,0 112.75,10.65 161.92,31.63 49.18,20.99 86.14,48.86 110.57,83 24.42,34.14 41.65,74.86 51.36,121.83 5.95,30.7 9.09,84.26 9.09,160.68l0 598.84 -165.38 0 0 -592.58c0,-67.33 -6.26,-117.77 -19.1,-150.96 -12.84,-33.2 -35.71,-59.82 -68.27,-79.86 -32.58,-19.73 -71.09,-29.76 -114.95,-29.76 -70.15,0 -130.6,22.24 -181.65,67.02 -51.06,44.47 -76.42,129.35 -76.42,254.01l0 532.13 -165.38 0zm983.14 -487.66c0,-180.08 50.11,-313.51 150.64,-400.27 83.63,-72.03 186.04,-108.05 306.63,-108.05 133.74,0 243.36,43.84 328.55,131.54 84.88,87.39 127.47,208.59 127.47,363 0,125.27 -18.79,223.63 -56.37,295.35 -37.59,71.72 -92.4,127.47 -164.44,167.25 -71.72,39.78 -150.33,59.51 -235.21,59.51 -136.55,0 -246.8,-43.53 -331.06,-130.92 -84.25,-87.38 -126.21,-213.29 -126.21,-377.41zm169.13 0.32c0,124.65 27.25,217.99 81.75,279.69 54.81,62.02 123.39,93.03 206.39,93.03 82.06,0 150.33,-31.01 205.15,-93.34 54.49,-62.33 81.74,-157.23 81.74,-284.7 0,-120.27 -27.56,-211.41 -82.37,-273.11 -54.81,-62.02 -123.09,-93.03 -204.52,-93.03 -83,0 -151.58,30.7 -206.39,92.4 -54.5,61.7 -81.75,154.72 -81.75,279.07zm934.27 487.34l0 -1345.52 165.38 0 0 1345.52 -165.38 0zm359.25 -487.66c0,-180.08 50.11,-313.51 150.64,-400.27 83.63,-72.03 186.04,-108.05 306.63,-108.05 133.74,0 243.36,43.84 328.55,131.54 84.88,87.39 127.47,208.59 127.47,363 0,125.27 -18.79,223.63 -56.37,295.35 -37.59,71.72 -92.4,127.47 -164.44,167.25 -71.72,39.78 -150.33,59.51 -235.21,59.51 -136.55,0 -246.8,-43.53 -331.06,-130.92 -84.25,-87.38 -126.21,-213.29 -126.21,-377.41zm169.13 0.32c0,124.65 27.25,217.99 81.75,279.69 54.81,62.02 123.39,93.03 206.39,93.03 82.06,0 150.33,-31.01 205.15,-93.34 54.49,-62.33 81.74,-157.23 81.74,-284.7 0,-120.27 -27.56,-211.41 -82.37,-273.11 -54.81,-62.02 -123.09,-93.03 -204.52,-93.03 -83,0 -151.58,30.7 -206.39,92.4 -54.5,61.7 -81.75,154.72 -81.75,279.07zm907.65 568.15l159.73 22.55c6.58,49.48 25.37,85.5 56.07,108.36 41.02,30.39 97.09,45.73 168.19,45.73 76.42,0 135.62,-15.34 177.27,-45.73 41.65,-30.38 69.84,-73.28 84.56,-128.09 8.46,-33.52 12.54,-103.99 11.91,-211.41 -72.35,85.19 -162.24,127.78 -269.98,127.78 -134.05,0 -238.03,-48.23 -311.32,-145.02 -73.6,-96.46 -110.25,-212.35 -110.25,-347.34 0,-93.02 16.91,-178.83 50.43,-257.44 33.51,-78.62 82.37,-139.07 146.27,-181.97 63.89,-42.91 139.06,-64.21 225.51,-64.21 114.94,0 209.84,46.98 284.38,140.94l0 -120.27 152.21 0 0 842.2c0,151.9 -15.34,259.33 -46.35,322.6 -30.69,63.27 -79.86,113.38 -146.58,150.02 -67.02,36.65 -149.39,55.12 -247.12,55.12 -116.2,0 -209.84,-25.99 -281.25,-78.3 -71.72,-51.99 -106.17,-130.6 -103.67,-235.52zm135.31 -585.06c0,127.47 25.36,220.49 76.1,279.06 51.05,58.57 114.64,88.02 191.06,88.02 76.1,0 139.69,-29.13 191.36,-87.39 51.37,-58.26 77.05,-149.71 77.05,-274.37 0,-119.02 -26.62,-208.9 -79.55,-269.35 -52.93,-60.45 -116.83,-90.52 -191.37,-90.52 -73.6,0 -135.93,29.76 -187.61,89.27 -51.36,59.51 -77.04,147.82 -77.04,265.28zm940.22 -653.34l0 -187.93 165.38 0 0 187.93 -165.38 0zm0 1157.59l0 -975.31 165.38 0 0 975.31 -165.38 0zm1054.55 -122.14c-61.39,52.3 -120.57,88.95 -177.26,110.56 -56.7,21.61 -117.46,32.26 -182.6,32.26 -107.11,0 -189.49,-26 -247.12,-78.3 -57.63,-51.99 -86.44,-118.71 -86.44,-199.83 0,-47.6 10.96,-91.14 32.57,-130.6 21.92,-39.47 50.43,-70.78 85.51,-94.58 35.39,-23.81 74.85,-41.97 119.02,-54.19 32.57,-8.46 81.74,-16.59 147.21,-24.74 133.42,-15.66 232.08,-34.77 295.03,-56.69 0.63,-22.55 0.94,-36.96 0.94,-42.91 0,-67.02 -15.65,-114.32 -46.97,-141.88 -42.28,-37.27 -105.24,-55.75 -188.55,-55.75 -77.99,0 -135.62,13.78 -172.58,41.03 -37.27,27.24 -64.52,75.48 -82.37,145.01l-161.61 -22.55c14.71,-69.21 38.84,-125.27 72.66,-167.88 33.82,-42.59 82.68,-75.16 146.58,-98.34 63.58,-22.86 137.81,-34.45 221.75,-34.45 83.31,0 151.27,9.71 203.57,29.44 52,19.73 90.52,44.16 114.95,73.91 24.43,29.76 41.65,67.34 51.68,112.76 5.33,28.19 8.15,78.92 8.15,151.9l0 219.24c0,153.15 3.44,249.94 10.34,290.96 6.58,41.03 20.35,80.18 40.39,117.77l-172.89 0c-16.59,-34.77 -27.25,-75.48 -31.95,-122.14zm-13.16 -366.45c-60.13,24.43 -150.33,45.1 -270.6,62.02 -68.28,9.71 -116.52,20.67 -144.71,32.89 -28.18,12.22 -49.79,30.07 -65.15,53.24 -15.34,23.49 -23.17,49.49 -23.17,78.3 0,43.53 16.59,80.18 50.11,109.31 33.51,29.13 82.37,43.85 146.58,43.85 63.59,0 120.28,-13.78 170.07,-41.66 49.49,-27.56 86.14,-65.46 109.31,-113.38 17.85,-37.27 26.62,-92.08 26.62,-164.43l0.94 -60.14z"/>
   <path class="fil0" d="M6757.28 9263.26l0 -41.61c0,-201.26 -163.12,-320.66 -364.37,-266.74l-1469.98 393.88c-201.26,53.92 -364.41,260.75 -364.41,462.02l0 41.61 -266.55 71.42c-201.26,53.92 -364.38,260.75 -364.38,462.02l0 282.93 3460.67 -927.27 0 -282.94c0,-201.25 -163.15,-320.7 -364.37,-266.77l-266.59 71.45z"/>
   <path class="fil0" d="M6108.74 1395.1l0 -19.11 -5514.76 1477.67c-261.78,70.16 -474.02,339.26 -474.02,601.09l0 19.11 0 3307.16 0 604.77 0 2261.18 0 205.03c0,261.82 212.24,417.16 474.02,347.04l4621.41 -1238.31 0 19.12 5514.76 -1477.68c261.78,-70.15 474.02,-339.26 474.02,-601.09l0 -19.11 0 -3911.94 0 -2261.17 0 -205.04c0,-261.82 -212.24,-417.16 -474.02,-347.04l-4621.41 1238.31z"/>
   <g>
    <path class="fil1" d="M6807.26 9253.26l0 -41.61c0,-201.26 -163.12,-320.66 -364.37,-266.74l-1469.98 393.88c-201.26,53.92 -364.41,260.75 -364.41,462.02l0 41.61 -266.55 71.42c-201.26,53.92 -364.38,260.75 -364.38,462.02l0 282.93 3460.67 -927.27 0 -282.94c0,-201.25 -163.15,-320.7 -364.37,-266.77l-266.59 71.45z"/>
    <path class="fil1" d="M6158.72 1385.1l0 -19.11 -5514.76 1477.67c-261.78,70.16 -474.02,339.26 -474.02,601.09l0 19.11 0 3307.16 0 604.77 0 2261.18 0 205.03c0,261.82 212.24,417.16 474.02,347.04l4621.41 -1238.31 0 19.12 5514.76 -1477.68c261.78,-70.15 474.02,-339.26 474.02,-601.09l0 -19.11 0 -3911.94 0 -2261.17 0 -205.04c0,-261.82 -212.24,-417.16 -474.02,-347.04l-4621.41 1238.31z"/>
   </g>
   <g>
    <path class="fil2" d="M6637.32 9123.31l0 -41.61c0,-201.26 -163.12,-320.66 -364.37,-266.74l-1469.98 393.88c-201.26,53.92 -364.41,260.75 -364.41,462.02l0 41.61 -266.55 71.42c-201.26,53.92 -364.38,260.75 -364.38,462.02l0 282.93 3460.67 -927.27 0 -282.94c0,-201.25 -163.15,-320.7 -364.37,-266.77l-266.59 71.45z"/>
    <path class="fil2" d="M5988.78 1255.15l0 -19.11 -5514.76 1477.67c-261.78,70.16 -474.02,339.26 -474.02,601.09l0 19.11 0 3307.16 0 604.77 0 2261.18 0 205.03c0,261.82 212.24,417.16 474.02,347.04l4621.41 -1238.31 0 19.12 5514.76 -1477.68c261.78,-70.15 474.02,-339.26 474.02,-601.09l0 -19.11 0 -3911.94 0 -2261.17 0 -205.04c0,-261.82 -212.24,-417.16 -474.02,-347.04l-4621.41 1238.31z"/>
   </g>
   <path class="fil1" d="M11846.38 7135.99c127.83,-1776.08 192.32,-3141.51 192.32,-4099.68l-3.4 -427.61c386.9,4.52 644.82,6.79 774.92,6.79 59.95,0 297.52,-2.27 712.68,-6.79 -40.72,497.75 -72.39,968.35 -97.28,1412.93 -31.68,618.8 -54.3,1198 -67.87,1736.48 -13.57,538.48 -20.36,997.78 -20.36,1377.88l-677.63 -6.79c-132.35,0 -403.86,2.26 -813.38,6.79zm2231.98 0c64.49,-502.28 113.13,-1056.6 147.07,-1664.08 33.94,-606.35 55.43,-1181.04 61.09,-1722.91 265.85,4.53 495.49,6.79 687.8,6.79 224,0 438.94,-2.26 644.82,-6.79l-29.41 451.37c72.4,-81.45 134.62,-145.94 187.79,-192.32 53.17,-47.51 118.78,-93.88 196.84,-138.01 79.19,-45.25 161.77,-81.45 250.01,-110.86 88.24,-28.29 184.39,-50.91 289.6,-66.75 105.21,-16.97 214.94,-24.89 329.2,-24.89 158.37,0 313.35,16.96 464.95,50.9 150.45,33.95 277.16,82.59 378.97,145.94 100.68,62.22 185.53,140.28 254.53,234.17 67.87,93.89 113.13,194.58 135.75,302.05 21.49,107.47 32.81,219.46 32.81,333.72 0,83.72 -9.05,265.85 -27.15,544.14l-55.43 1200.26c-11.32,237.57 -16.97,455.9 -16.97,657.26 -223.99,-4.53 -432.14,-6.79 -626.72,-6.79 -263.58,0 -503.41,2.26 -719.48,6.79 20.36,-201.36 42.99,-500.01 65.62,-897.08 22.62,-397.07 35.07,-676.5 35.07,-838.27 0,-248.88 -48.64,-421.95 -144.8,-520.38 -96.15,-98.42 -218.34,-147.07 -364.26,-147.07 -128.96,0 -250.01,41.85 -364.26,125.57 -114.26,84.84 -201.36,205.88 -263.59,366.52 -62.22,160.64 -106.33,424.22 -131.22,790.75 -26.02,366.52 -42.98,739.84 -52.04,1119.94 -220.6,-4.53 -436.67,-6.79 -647.08,-6.79 -220.6,0 -460.42,2.26 -719.48,6.79zm4796.54 0c41.85,-424.22 92.76,-1234.2 152.71,-2429.94l-403.86 0c6.79,-69 15.84,-214.94 28.28,-437.8 12.45,-223.99 19.23,-385.76 21.5,-485.31l469.46 0c-2.26,-88.24 -3.39,-165.16 -3.39,-229.64 0,-203.62 10.18,-362 31.68,-477.39 20.36,-115.39 59.95,-212.68 115.39,-294.13 56.56,-80.32 136.88,-152.71 238.69,-216.07 102.94,-62.22 219.47,-105.2 348.43,-127.83 128.96,-21.49 263.58,-32.81 402.73,-32.81 127.83,0 266.97,7.93 416.29,24.89 149.33,16.97 326.94,54.3 535.09,110.87 6.79,351.82 20.36,643.68 42.98,875.59 -218.33,-81.45 -415.16,-122.18 -589.38,-122.18 -118.79,0 -212.68,27.16 -279.43,82.59 -67.87,55.43 -101.81,158.37 -101.81,306.57l3.4 99.55 763.59 0c-18.1,254.53 -35.07,562.24 -53.17,923.11l-688.93 0 -109.73 2429.94c-262.45,-4.53 -488.71,-6.79 -676.5,-6.79 -190.05,0 -411.78,2.26 -664.04,6.79zm4510.32 -3468.43c274.9,0 538.48,41.85 791.88,125.57 253.4,84.84 467.21,204.75 641.42,363.12 175.34,158.38 304.31,342.77 386.89,554.32 82.59,210.41 124.44,437.8 124.44,681.02 0,236.43 -37.34,460.42 -110.87,674.23 -74.66,212.68 -200.23,412.91 -376.7,599.57 -177.61,186.66 -402.73,326.94 -675.37,419.69 -272.63,92.77 -562.23,139.15 -867.68,139.15 -280.55,0 -550.91,-40.72 -809.98,-122.17 -257.92,-82.58 -475.12,-201.36 -648.21,-358.61 -174.21,-157.25 -304.31,-345.04 -391.41,-563.37 -87.11,-218.33 -131.23,-449.11 -131.23,-688.93 0,-240.96 42.99,-471.73 127.83,-690.07 84.85,-218.33 219.47,-415.16 404.99,-589.38 184.4,-175.34 412.92,-308.83 684.41,-402.73 272.63,-93.89 555.44,-141.41 849.57,-141.41zm-22.62 977.4c-141.41,0 -268.11,36.2 -378.97,108.6 -109.74,73.53 -193.45,179.87 -250.02,319.02 -56.56,140.27 -84.84,292.99 -84.84,458.16 0,242.09 61.09,427.61 182.13,556.57 122.17,128.96 274.9,193.45 458.16,193.45 139.15,0 264.71,-37.34 375.58,-110.86 109.73,-73.53 193.44,-183.27 250.01,-326.94 56.56,-144.81 84.84,-298.65 84.84,-464.95 0,-135.75 -22.62,-259.06 -66.75,-369.92 -44.11,-109.73 -116.52,-197.97 -217.2,-263.58 -100.68,-66.75 -218.33,-99.55 -352.95,-99.55zm3596.27 2491.03l0 -4303.3 -1371.09 0 0 -549.79 3319.11 0 0 549.79 -1364.3 0 0 4303.3 -583.72 0zm3883.6 -1859.79c-18.1,-266.98 -106.34,-472.86 -266.97,-617.67 -159.51,-144.8 -378.98,-217.2 -657.26,-217.2 -252.28,0 -462.69,75.79 -630.11,227.39 -168.56,150.45 -265.84,352.95 -291.86,607.48l1846.21 0zm556.58 420.82l-2402.79 0 0 46.38c0,324.67 92.77,587.12 278.29,787.36 185.53,200.24 427.62,299.79 726.27,299.79 202.49,0 386.9,-54.3 549.79,-164.04 164.03,-108.6 308.83,-273.76 434.4,-494.36l393.68 264.71c-151.59,273.77 -346.17,480.79 -582.6,619.93 -236.43,139.15 -510.19,208.15 -822.42,208.15 -461.55,0 -834.87,-152.72 -1119.94,-457.03 -285.08,-305.44 -427.62,-705.91 -427.62,-1200.26 0,-475.13 141.41,-864.28 424.22,-1167.45 282.81,-302.05 645.95,-453.64 1090.53,-453.64 447.98,0 803.2,143.68 1065.65,431.01 261.31,287.34 392.54,679.89 392.54,1176.51l0 102.94zm3109.82 719.48l0 604.09c-136.88,81.45 -290.73,142.54 -462.68,183.26 -170.83,40.72 -356.35,61.09 -555.45,61.09 -468.34,0 -845.04,-148.19 -1131.26,-445.71 -286.2,-297.52 -429.88,-687.8 -429.88,-1171.98 0,-486.44 148.19,-883.51 444.58,-1191.22 296.39,-308.83 675.37,-462.69 1136.92,-462.69 167.43,0 331.46,18.1 492.1,53.17 160.64,35.07 311.09,87.11 452.5,156.11l0 557.71c-132.35,-85.98 -269.24,-151.58 -410.65,-196.84 -141.41,-45.25 -285.07,-67.87 -431.01,-67.87 -340.5,0 -614.27,106.34 -819.02,320.14 -205.89,212.68 -308.83,496.62 -308.83,849.58 0,312.22 102.94,572.42 309.96,782.83 207.02,209.28 466.08,314.49 777.17,314.49 157.25,0 311.1,-28.29 461.56,-83.72 150.45,-55.43 307.71,-142.54 473.99,-262.45zm720.62 719.48l0 -5138.17 509.06 0 0 2572.48c130.1,-194.58 287.34,-339.37 470.6,-434.41 183.26,-95.02 395.94,-142.54 635.77,-142.54 358.61,0 638.02,95.02 838.26,285.08 201.36,190.05 302.05,454.76 302.05,793l0 2064.55 -529.43 0 0 -1786.25c0,-307.71 -64.48,-535.09 -193.44,-684.41 -130.1,-149.32 -329.2,-223.99 -598.44,-223.99 -154.98,0 -296.39,28.28 -423.09,84.84 -126.7,56.57 -231.91,135.76 -316.75,239.83 -63.36,79.19 -109.74,170.82 -136.89,271.5 -28.28,101.81 -41.85,278.3 -41.85,530.56l0 1567.92 -515.85 0z"/>
   <path class="fil0" d="M12026.31 7195.97c127.83,-1776.08 192.32,-3141.51 192.32,-4099.68l-3.4 -427.61c386.9,4.52 644.82,6.79 774.92,6.79 59.95,0 297.52,-2.27 712.68,-6.79 -40.72,497.75 -72.39,968.35 -97.28,1412.93 -31.68,618.8 -54.3,1198 -67.87,1736.48 -13.57,538.48 -20.36,997.78 -20.36,1377.88l-677.63 -6.79c-132.35,0 -403.86,2.26 -813.38,6.79zm2231.98 0c64.49,-502.28 113.13,-1056.6 147.07,-1664.08 33.94,-606.35 55.43,-1181.04 61.09,-1722.91 265.85,4.53 495.49,6.79 687.8,6.79 224,0 438.94,-2.26 644.82,-6.79l-29.41 451.37c72.4,-81.45 134.62,-145.94 187.79,-192.32 53.17,-47.51 118.78,-93.88 196.84,-138.01 79.19,-45.25 161.77,-81.45 250.01,-110.86 88.24,-28.29 184.39,-50.91 289.6,-66.75 105.21,-16.97 214.94,-24.89 329.2,-24.89 158.37,0 313.35,16.96 464.95,50.9 150.45,33.95 277.16,82.59 378.97,145.94 100.68,62.22 185.53,140.28 254.53,234.17 67.87,93.89 113.13,194.58 135.75,302.05 21.49,107.47 32.81,219.46 32.81,333.72 0,83.72 -9.05,265.85 -27.15,544.14l-55.43 1200.26c-11.32,237.57 -16.97,455.9 -16.97,657.26 -223.99,-4.53 -432.14,-6.79 -626.72,-6.79 -263.58,0 -503.41,2.26 -719.48,6.79 20.36,-201.36 42.99,-500.01 65.62,-897.08 22.62,-397.07 35.07,-676.5 35.07,-838.27 0,-248.88 -48.64,-421.95 -144.8,-520.38 -96.15,-98.42 -218.34,-147.07 -364.26,-147.07 -128.96,0 -250.01,41.85 -364.26,125.57 -114.26,84.84 -201.36,205.88 -263.59,366.52 -62.22,160.64 -106.33,424.22 -131.22,790.75 -26.02,366.52 -42.98,739.84 -52.04,1119.94 -220.6,-4.53 -436.67,-6.79 -647.08,-6.79 -220.6,0 -460.42,2.26 -719.48,6.79zm4796.54 0c41.85,-424.22 92.76,-1234.2 152.71,-2429.94l-403.86 0c6.79,-69 15.84,-214.94 28.28,-437.8 12.45,-223.99 19.23,-385.76 21.5,-485.31l469.46 0c-2.26,-88.24 -3.39,-165.16 -3.39,-229.64 0,-203.62 10.18,-362 31.68,-477.39 20.36,-115.39 59.95,-212.68 115.39,-294.13 56.56,-80.32 136.88,-152.71 238.69,-216.07 102.94,-62.22 219.47,-105.2 348.43,-127.83 128.96,-21.49 263.58,-32.81 402.73,-32.81 127.83,0 266.97,7.93 416.29,24.89 149.33,16.97 326.94,54.3 535.09,110.87 6.79,351.82 20.36,643.68 42.98,875.59 -218.33,-81.45 -415.16,-122.18 -589.38,-122.18 -118.79,0 -212.68,27.16 -279.43,82.59 -67.87,55.43 -101.81,158.37 -101.81,306.57l3.4 99.55 763.59 0c-18.1,254.53 -35.07,562.24 -53.17,923.11l-688.93 0 -109.73 2429.94c-262.45,-4.53 -488.71,-6.79 -676.5,-6.79 -190.05,0 -411.78,2.26 -664.04,6.79zm4510.32 -3468.43c274.9,0 538.48,41.85 791.88,125.57 253.4,84.84 467.21,204.75 641.42,363.12 175.34,158.38 304.31,342.77 386.89,554.32 82.59,210.41 124.44,437.8 124.44,681.02 0,236.43 -37.34,460.42 -110.87,674.23 -74.66,212.68 -200.23,412.91 -376.7,599.57 -177.61,186.66 -402.73,326.94 -675.37,419.69 -272.63,92.77 -562.23,139.15 -867.68,139.15 -280.55,0 -550.91,-40.72 -809.98,-122.17 -257.92,-82.58 -475.12,-201.36 -648.21,-358.61 -174.21,-157.25 -304.31,-345.04 -391.41,-563.37 -87.11,-218.33 -131.23,-449.11 -131.23,-688.93 0,-240.96 42.99,-471.73 127.83,-690.07 84.85,-218.33 219.47,-415.16 404.99,-589.38 184.4,-175.34 412.92,-308.83 684.41,-402.73 272.63,-93.89 555.44,-141.41 849.57,-141.41zm-22.62 977.4c-141.41,0 -268.11,36.2 -378.97,108.6 -109.74,73.53 -193.45,179.87 -250.02,319.02 -56.56,140.27 -84.84,292.99 -84.84,458.16 0,242.09 61.09,427.61 182.13,556.57 122.17,128.96 274.9,193.45 458.16,193.45 139.15,0 264.71,-37.34 375.58,-110.86 109.73,-73.53 193.44,-183.27 250.01,-326.94 56.56,-144.81 84.84,-298.65 84.84,-464.95 0,-135.75 -22.62,-259.06 -66.75,-369.92 -44.11,-109.73 -116.52,-197.97 -217.2,-263.58 -100.68,-66.75 -218.33,-99.55 -352.95,-99.55zm3596.27 2491.03l0 -4303.3 -1371.09 0 0 -549.79 3319.11 0 0 549.79 -1364.3 0 0 4303.3 -583.72 0zm3883.6 -1859.79c-18.1,-266.98 -106.34,-472.86 -266.97,-617.67 -159.51,-144.8 -378.98,-217.2 -657.26,-217.2 -252.28,0 -462.69,75.79 -630.11,227.39 -168.56,150.45 -265.84,352.95 -291.86,607.48l1846.21 0zm556.58 420.82l-2402.79 0 0 46.38c0,324.67 92.77,587.12 278.29,787.36 185.53,200.24 427.62,299.79 726.27,299.79 202.49,0 386.9,-54.3 549.79,-164.04 164.03,-108.6 308.83,-273.76 434.4,-494.36l393.68 264.71c-151.59,273.77 -346.17,480.79 -582.6,619.93 -236.43,139.15 -510.19,208.15 -822.42,208.15 -461.55,0 -834.87,-152.72 -1119.94,-457.03 -285.08,-305.44 -427.62,-705.91 -427.62,-1200.26 0,-475.13 141.41,-864.28 424.22,-1167.45 282.81,-302.05 645.95,-453.64 1090.53,-453.64 447.98,0 803.2,143.68 1065.65,431.01 261.31,287.34 392.54,679.89 392.54,1176.51l0 102.94zm3109.82 719.48l0 604.09c-136.88,81.45 -290.73,142.54 -462.68,183.26 -170.83,40.72 -356.35,61.09 -555.45,61.09 -468.34,0 -845.04,-148.19 -1131.26,-445.71 -286.2,-297.52 -429.88,-687.8 -429.88,-1171.98 0,-486.44 148.19,-883.51 444.58,-1191.22 296.39,-308.83 675.37,-462.69 1136.92,-462.69 167.43,0 331.46,18.1 492.1,53.17 160.64,35.07 311.09,87.11 452.5,156.11l0 557.71c-132.35,-85.98 -269.24,-151.58 -410.65,-196.84 -141.41,-45.25 -285.07,-67.87 -431.01,-67.87 -340.5,0 -614.27,106.34 -819.02,320.14 -205.89,212.68 -308.83,496.62 -308.83,849.58 0,312.22 102.94,572.42 309.96,782.83 207.02,209.28 466.08,314.49 777.17,314.49 157.25,0 311.1,-28.29 461.56,-83.72 150.45,-55.43 307.71,-142.54 473.99,-262.45zm720.62 719.48l0 -5138.17 509.06 0 0 2572.48c130.1,-194.58 287.34,-339.37 470.6,-434.41 183.26,-95.02 395.94,-142.54 635.77,-142.54 358.61,0 638.02,95.02 838.26,285.08 201.36,190.05 302.05,454.76 302.05,793l0 2064.55 -529.43 0 0 -1786.25c0,-307.71 -64.48,-535.09 -193.44,-684.41 -130.1,-149.32 -329.2,-223.99 -598.44,-223.99 -154.98,0 -296.39,28.28 -423.09,84.84 -126.7,56.57 -231.91,135.76 -316.75,239.83 -63.36,79.19 -109.74,170.82 -136.89,271.5 -28.28,101.81 -41.85,278.3 -41.85,530.56l0 1567.92 -515.85 0z"/>
   <path class="fil3" style="mask:url(#id0)" d="M6637.32 9123.31l0 -41.61c0,-201.26 -163.12,-320.66 -364.37,-266.74l-1469.98 393.88c-201.26,53.92 -364.41,260.75 -364.41,462.02l0 41.61 -266.55 71.42c-201.26,53.92 -364.38,260.75 -364.38,462.02l0 282.93 3460.67 -927.27 0 -282.94c0,-201.25 -163.15,-320.7 -364.37,-266.77l-266.59 71.45z"/>
   <path class="fil3" style="mask:url(#id2)" d="M5988.78 1255.15l0 -19.11 -5514.76 1477.67c-261.78,70.16 -474.02,339.26 -474.02,601.09l0 19.11 0 3307.16 0 604.77 0 2261.18 0 205.03c0,261.82 212.24,417.16 474.02,347.04l4621.41 -1238.31 0 19.12 5514.76 -1477.68c261.78,-70.15 474.02,-339.26 474.02,-601.09l0 -19.11 0 -3911.94 0 -2261.17 0 -205.04c0,-261.82 -212.24,-417.16 -474.02,-347.04l-4621.41 1238.31z"/>
   <path class="fil0" d="M1291.88 7424.72c54.3,-521.51 93.89,-948 117.66,-1277.19 46.38,-600.7 80.32,-1199.13 104.07,-1791.91 22.63,-593.91 33.94,-1080.35 33.94,-1458.19 300.92,4.52 566.76,6.79 798.67,6.79 157.24,0 382.37,-2.27 676.49,-6.79l-79.18 1202.52 -100.68 1879.02 -12.45 461.56c380.1,6.79 628.98,10.18 743.23,10.18 582.6,0 1023.79,-7.92 1322.45,-23.75l-74.66 997.77c-581.47,-4.53 -1134.66,-6.79 -1660.69,-6.79 -711.56,0 -1333.75,2.26 -1868.84,6.79zm6671.03 -2633.57c302.05,4.53 590.52,6.79 864.29,6.79 467.21,0 833.74,-2.26 1098.45,-6.79 -28.28,302.05 -56.57,730.79 -85.98,1283.98 -28.28,554.31 -46.38,971.75 -53.17,1254.56 -254.53,46.38 -464.95,80.32 -631.24,101.81 -167.42,21.49 -367.65,39.6 -601.83,56.56 -234.17,16.97 -443.45,24.89 -626.72,24.89 -300.92,0 -595.04,-23.75 -884.64,-72.4 -289.6,-48.64 -548.67,-127.83 -778.31,-235.3 -228.51,-108.6 -418.56,-255.66 -571.29,-441.19 -152.71,-185.53 -270.37,-406.12 -352.95,-659.52 -82.58,-254.53 -124.44,-516.99 -124.44,-789.62 0,-447.98 112,-864.29 334.85,-1248.91 222.86,-384.63 544.14,-688.93 962.7,-914.06 418.56,-223.99 959.3,-335.97 1622.22,-335.97 484.18,0 1019.26,58.82 1607.52,176.47 0,321.27 13.57,678.76 40.72,1072.43 -159.51,-53.17 -287.34,-92.77 -385.77,-121.04 -98.41,-27.15 -213.8,-53.17 -345.03,-75.79 -131.22,-23.76 -256.79,-40.72 -374.44,-50.91 -118.79,-11.31 -224,-16.96 -316.76,-16.96 -243.22,0 -472.86,35.07 -690.06,104.07 -216.07,70.14 -402.73,176.47 -557.71,321.28 -156.11,143.67 -272.63,316.75 -349.56,516.99 -78.05,201.36 -116.52,412.91 -116.52,635.76 0,226.26 44.12,428.75 132.36,606.35 89.37,177.61 229.64,312.23 421.95,404.99 192.32,92.77 407.26,139.15 644.82,139.15 196.84,0 412.91,-29.41 647.08,-88.24l33.94 -705.91c-142.54,-4.53 -227.39,-6.79 -253.4,-6.79l-350.7 3.4 22.63 -408.39c2.26,-44.12 5.66,-108.6 10.18,-191.19 4.53,-82.58 6.79,-196.84 6.79,-340.5z"/>
   <path class="fil1" d="M1161.93 7214.8c54.3,-521.51 93.89,-948 117.66,-1277.19 46.38,-600.7 80.32,-1199.13 104.07,-1791.91 22.63,-593.91 33.94,-1080.35 33.94,-1458.19 300.92,4.52 566.76,6.79 798.67,6.79 157.24,0 382.37,-2.27 676.49,-6.79l-79.18 1202.52 -100.68 1879.02 -12.45 461.56c380.1,6.79 628.98,10.18 743.23,10.18 582.6,0 1023.79,-7.92 1322.45,-23.75l-74.66 997.77c-581.47,-4.53 -1134.66,-6.79 -1660.69,-6.79 -711.56,0 -1333.75,2.26 -1868.84,6.79zm6671.03 -2633.57c302.05,4.53 590.52,6.79 864.29,6.79 467.21,0 833.74,-2.26 1098.45,-6.79 -28.28,302.05 -56.57,730.79 -85.98,1283.98 -28.28,554.31 -46.38,971.75 -53.17,1254.56 -254.53,46.38 -464.95,80.32 -631.24,101.81 -167.42,21.49 -367.65,39.6 -601.83,56.56 -234.17,16.97 -443.45,24.89 -626.72,24.89 -300.92,0 -595.04,-23.75 -884.64,-72.4 -289.6,-48.64 -548.67,-127.83 -778.31,-235.3 -228.51,-108.6 -418.56,-255.66 -571.29,-441.19 -152.71,-185.53 -270.37,-406.12 -352.95,-659.52 -82.58,-254.53 -124.44,-516.99 -124.44,-789.62 0,-447.98 112,-864.29 334.85,-1248.91 222.86,-384.63 544.14,-688.93 962.7,-914.06 418.56,-223.99 959.3,-335.97 1622.22,-335.97 484.18,0 1019.26,58.82 1607.52,176.47 0,321.27 13.57,678.76 40.72,1072.43 -159.51,-53.17 -287.34,-92.77 -385.77,-121.04 -98.41,-27.15 -213.8,-53.17 -345.03,-75.79 -131.22,-23.76 -256.79,-40.72 -374.44,-50.91 -118.79,-11.31 -224,-16.96 -316.76,-16.96 -243.22,0 -472.86,35.07 -690.06,104.07 -216.07,70.14 -402.73,176.47 -557.71,321.28 -156.11,143.67 -272.63,316.75 -349.56,516.99 -78.05,201.36 -116.52,412.91 -116.52,635.76 0,226.26 44.12,428.75 132.36,606.35 89.37,177.61 229.64,312.23 421.95,404.99 192.32,92.77 407.26,139.15 644.82,139.15 196.84,0 412.91,-29.41 647.08,-88.24l33.94 -705.91c-142.54,-4.53 -227.39,-6.79 -253.4,-6.79l-350.7 3.4 22.63 -408.39c2.26,-44.12 5.66,-108.6 10.18,-191.19 4.53,-82.58 6.79,-196.84 6.79,-340.5z"/>
   <path class="fil1" d="M11846.38 7135.99c127.83,-1776.08 192.32,-3141.51 192.32,-4099.68l-3.4 -427.61c386.9,4.52 644.82,6.79 774.92,6.79 59.95,0 297.52,-2.27 712.68,-6.79 -40.72,497.75 -72.39,968.35 -97.28,1412.93 -31.68,618.8 -54.3,1198 -67.87,1736.48 -13.57,538.48 -20.36,997.78 -20.36,1377.88l-677.63 -6.79c-132.35,0 -403.86,2.26 -813.38,6.79zm2231.98 0c64.49,-502.28 113.13,-1056.6 147.07,-1664.08 33.94,-606.35 55.43,-1181.04 61.09,-1722.91 265.85,4.53 495.49,6.79 687.8,6.79 224,0 438.94,-2.26 644.82,-6.79l-29.41 451.37c72.4,-81.45 134.62,-145.94 187.79,-192.32 53.17,-47.51 118.78,-93.88 196.84,-138.01 79.19,-45.25 161.77,-81.45 250.01,-110.86 88.24,-28.29 184.39,-50.91 289.6,-66.75 105.21,-16.97 214.94,-24.89 329.2,-24.89 158.37,0 313.35,16.96 464.95,50.9 150.45,33.95 277.16,82.59 378.97,145.94 100.68,62.22 185.53,140.28 254.53,234.17 67.87,93.89 113.13,194.58 135.75,302.05 21.49,107.47 32.81,219.46 32.81,333.72 0,83.72 -9.05,265.85 -27.15,544.14l-55.43 1200.26c-11.32,237.57 -16.97,455.9 -16.97,657.26 -223.99,-4.53 -432.14,-6.79 -626.72,-6.79 -263.58,0 -503.41,2.26 -719.48,6.79 20.36,-201.36 42.99,-500.01 65.62,-897.08 22.62,-397.07 35.07,-676.5 35.07,-838.27 0,-248.88 -48.64,-421.95 -144.8,-520.38 -96.15,-98.42 -218.34,-147.07 -364.26,-147.07 -128.96,0 -250.01,41.85 -364.26,125.57 -114.26,84.84 -201.36,205.88 -263.59,366.52 -62.22,160.64 -106.33,424.22 -131.22,790.75 -26.02,366.52 -42.98,739.84 -52.04,1119.94 -220.6,-4.53 -436.67,-6.79 -647.08,-6.79 -220.6,0 -460.42,2.26 -719.48,6.79zm4796.54 0c41.85,-424.22 92.76,-1234.2 152.71,-2429.94l-403.86 0c6.79,-69 15.84,-214.94 28.28,-437.8 12.45,-223.99 19.23,-385.76 21.5,-485.31l469.46 0c-2.26,-88.24 -3.39,-165.16 -3.39,-229.64 0,-203.62 10.18,-362 31.68,-477.39 20.36,-115.39 59.95,-212.68 115.39,-294.13 56.56,-80.32 136.88,-152.71 238.69,-216.07 102.94,-62.22 219.47,-105.2 348.43,-127.83 128.96,-21.49 263.58,-32.81 402.73,-32.81 127.83,0 266.97,7.93 416.29,24.89 149.33,16.97 326.94,54.3 535.09,110.87 6.79,351.82 20.36,643.68 42.98,875.59 -218.33,-81.45 -415.16,-122.18 -589.38,-122.18 -118.79,0 -212.68,27.16 -279.43,82.59 -67.87,55.43 -101.81,158.37 -101.81,306.57l3.4 99.55 763.59 0c-18.1,254.53 -35.07,562.24 -53.17,923.11l-688.93 0 -109.73 2429.94c-262.45,-4.53 -488.71,-6.79 -676.5,-6.79 -190.05,0 -411.78,2.26 -664.04,6.79zm4510.32 -3468.43c274.9,0 538.48,41.85 791.88,125.57 253.4,84.84 467.21,204.75 641.42,363.12 175.34,158.38 304.31,342.77 386.89,554.32 82.59,210.41 124.44,437.8 124.44,681.02 0,236.43 -37.34,460.42 -110.87,674.23 -74.66,212.68 -200.23,412.91 -376.7,599.57 -177.61,186.66 -402.73,326.94 -675.37,419.69 -272.63,92.77 -562.23,139.15 -867.68,139.15 -280.55,0 -550.91,-40.72 -809.98,-122.17 -257.92,-82.58 -475.12,-201.36 -648.21,-358.61 -174.21,-157.25 -304.31,-345.04 -391.41,-563.37 -87.11,-218.33 -131.23,-449.11 -131.23,-688.93 0,-240.96 42.99,-471.73 127.83,-690.07 84.85,-218.33 219.47,-415.16 404.99,-589.38 184.4,-175.34 412.92,-308.83 684.41,-402.73 272.63,-93.89 555.44,-141.41 849.57,-141.41zm-22.62 977.4c-141.41,0 -268.11,36.2 -378.97,108.6 -109.74,73.53 -193.45,179.87 -250.02,319.02 -56.56,140.27 -84.84,292.99 -84.84,458.16 0,242.09 61.09,427.61 182.13,556.57 122.17,128.96 274.9,193.45 458.16,193.45 139.15,0 264.71,-37.34 375.58,-110.86 109.73,-73.53 193.44,-183.27 250.01,-326.94 56.56,-144.81 84.84,-298.65 84.84,-464.95 0,-135.75 -22.62,-259.06 -66.75,-369.92 -44.11,-109.73 -116.52,-197.97 -217.2,-263.58 -100.68,-66.75 -218.33,-99.55 -352.95,-99.55zm3596.27 2491.03l0 -4303.3 -1371.09 0 0 -549.79 3319.11 0 0 549.79 -1364.3 0 0 4303.3 -583.72 0zm3883.6 -1859.79c-18.1,-266.98 -106.34,-472.86 -266.97,-617.67 -159.51,-144.8 -378.98,-217.2 -657.26,-217.2 -252.28,0 -462.69,75.79 -630.11,227.39 -168.56,150.45 -265.84,352.95 -291.86,607.48l1846.21 0zm556.58 420.82l-2402.79 0 0 46.38c0,324.67 92.77,587.12 278.29,787.36 185.53,200.24 427.62,299.79 726.27,299.79 202.49,0 386.9,-54.3 549.79,-164.04 164.03,-108.6 308.83,-273.76 434.4,-494.36l393.68 264.71c-151.59,273.77 -346.17,480.79 -582.6,619.93 -236.43,139.15 -510.19,208.15 -822.42,208.15 -461.55,0 -834.87,-152.72 -1119.94,-457.03 -285.08,-305.44 -427.62,-705.91 -427.62,-1200.26 0,-475.13 141.41,-864.28 424.22,-1167.45 282.81,-302.05 645.95,-453.64 1090.53,-453.64 447.98,0 803.2,143.68 1065.65,431.01 261.31,287.34 392.54,679.89 392.54,1176.51l0 102.94zm3109.82 719.48l0 604.09c-136.88,81.45 -290.73,142.54 -462.68,183.26 -170.83,40.72 -356.35,61.09 -555.45,61.09 -468.34,0 -845.04,-148.19 -1131.26,-445.71 -286.2,-297.52 -429.88,-687.8 -429.88,-1171.98 0,-486.44 148.19,-883.51 444.58,-1191.22 296.39,-308.83 675.37,-462.69 1136.92,-462.69 167.43,0 331.46,18.1 492.1,53.17 160.64,35.07 311.09,87.11 452.5,156.11l0 557.71c-132.35,-85.98 -269.24,-151.58 -410.65,-196.84 -141.41,-45.25 -285.07,-67.87 -431.01,-67.87 -340.5,0 -614.27,106.34 -819.02,320.14 -205.89,212.68 -308.83,496.62 -308.83,849.58 0,312.22 102.94,572.42 309.96,782.83 207.02,209.28 466.08,314.49 777.17,314.49 157.25,0 311.1,-28.29 461.56,-83.72 150.45,-55.43 307.71,-142.54 473.99,-262.45zm720.62 719.48l0 -5138.17 509.06 0 0 2572.48c130.1,-194.58 287.34,-339.37 470.6,-434.41 183.26,-95.02 395.94,-142.54 635.77,-142.54 358.61,0 638.02,95.02 838.26,285.08 201.36,190.05 302.05,454.76 302.05,793l0 2064.55 -529.43 0 0 -1786.25c0,-307.71 -64.48,-535.09 -193.44,-684.41 -130.1,-149.32 -329.2,-223.99 -598.44,-223.99 -154.98,0 -296.39,28.28 -423.09,84.84 -126.7,56.57 -231.91,135.76 -316.75,239.83 -63.36,79.19 -109.74,170.82 -136.89,271.5 -28.28,101.81 -41.85,278.3 -41.85,530.56l0 1567.92 -515.85 0z"/>
  </g>
 </g>
</svg>
